<svg width="24" height="21" viewBox="0 0 24 21" fill="none" xmlns="http://www.w3.org/2000/svg">
<path d="M21.5156 5.81738C21.5156 6.05176 21.5156 6.23926 21.5156 6.47363C21.5156 12.9893 16.5938 20.4424 7.54688 20.4424C4.73438 20.4424 2.15625 19.6455 0 18.2393C0.375 18.2861 0.75 18.333 1.17188 18.333C3.46875 18.333 5.57812 17.5361 7.26562 16.2236C5.10938 16.1768 3.28125 14.7705 2.67188 12.8018C3 12.8486 3.28125 12.8955 3.60938 12.8955C4.03125 12.8955 4.5 12.8018 4.875 12.708C2.625 12.2393 0.9375 10.2705 0.9375 7.87988V7.83301C1.59375 8.20801 2.39062 8.39551 3.1875 8.44238C1.82812 7.55176 0.984375 6.05176 0.984375 4.36426C0.984375 3.42676 1.21875 2.58301 1.64062 1.87988C4.07812 4.83301 7.73438 6.80176 11.8125 7.03613C11.7188 6.66113 11.6719 6.28613 11.6719 5.91113C11.6719 3.19238 13.875 0.989258 16.5938 0.989258C18 0.989258 19.2656 1.55176 20.2031 2.53613C21.2812 2.30176 22.3594 1.87988 23.2969 1.31738C22.9219 2.48926 22.1719 3.42676 21.1406 4.03613C22.125 3.94238 23.1094 3.66113 23.9531 3.28613C23.2969 4.27051 22.4531 5.11426 21.5156 5.81738Z" fill="#2B2B2B"/>
</svg>
